<svg xmlns="http://www.w3.org/2000/svg" style="display:none" aria-hidden="true">
  <symbol id="icon-account_balance" viewBox="0 -960 960 960"><path d="M200-280v-280h80v280h-80Zm240 0v-280h80v280h-80ZM80-120v-80h800v80H80Zm600-160v-280h80v280h-80ZM80-640v-80l400-200 400 200v80H80Zm178-80h444-444Zm0 0h444L480-830 258-720Z"/></symbol>
  <symbol id="icon-add" viewBox="0 -960 960 960"><path d="M440-440H200v-80h240v-240h80v240h240v80H520v240h-80v-240Z"/></symbol>
  <symbol id="icon-add_link" viewBox="0 -960 960 960"><path d="M680-160v-120H560v-80h120v-120h80v120h120v80H760v120h-80ZM440-280H280q-83 0-141.5-58.5T80-480q0-83 58.5-141.5T280-680h160v80H280q-50 0-85 35t-35 85q0 50 35 85t85 35h160v80ZM320-440v-80h320v80H320Zm560-40h-80q0-50-35-85t-85-35H520v-80h160q83 0 141.5 58.5T880-480Z"/></symbol>
  <symbol id="icon-admin_panel_settings" viewBox="0 -960 960 960"><path d="M680-280q25 0 42.5-17.5T740-340q0-25-17.5-42.5T680-400q-25 0-42.5 17.5T620-340q0 25 17.5 42.5T680-280Zm0 120q31 0 57-14.5t42-38.5q-22-13-47-20t-52-7q-27 0-52 7t-47 20q16 24 42 38.5t57 14.5ZM480-80q-139-35-229.5-159.5T160-516v-244l320-120 320 120v227q-19-8-39-14.5t-41-9.5v-147l-240-90-240 90v188q0 47 12.5 94t35 89.5Q310-290 342-254t71 60q11 32 29 61t41 52q-1 0-1.5.5t-1.5.5Zm200 0q-83 0-141.5-58.5T480-280q0-83 58.5-141.5T680-480q83 0 141.5 58.5T880-280q0 83-58.5 141.5T680-80ZM480-494Z"/></symbol>
  <symbol id="icon-arrow_back" viewBox="0 -960 960 960"><path d="m313-440 224 224-57 56-320-320 320-320 57 56-224 224h487v80H313Z"/></symbol>
  <symbol id="icon-assignment_return" viewBox="0 -960 960 960"><path d="m480-320 56-56-63-64h167v-80H473l63-64-56-56-160 160 160 160ZM200-120q-33 0-56.5-23.5T120-200v-560q0-33 23.5-56.5T200-840h168q13-36 43.5-58t68.5-22q38 0 68.5 22t43.5 58h168q33 0 56.5 23.5T840-760v560q0 33-23.5 56.5T760-120H200Zm0-80h560v-560H200v560Zm280-590q13 0 21.5-8.5T510-820q0-13-8.5-21.5T480-850q-13 0-21.5 8.5T450-820q0 13 8.5 21.5T480-790ZM200-200v-560 560Z"/></symbol>
  <symbol id="icon-block" viewBox="0 -960 960 960"><path d="M480-80q-83 0-156-31.5T197-197q-54-54-85.5-127T80-480q0-83 31.5-156T197-763q54-54 127-85.5T480-880q83 0 156 31.5T763-763q54 54 85.5 127T880-480q0 83-31.5 156T763-197q-54 54-127 85.5T480-80Zm0-80q54 0 104-17.5t92-50.5L228-676q-33 42-50.5 92T160-480q0 134 93 227t227 93Zm252-124q33-42 50.5-92T800-480q0-134-93-227t-227-93q-54 0-104 17.5T284-732l448 448Z"/></symbol>
  <symbol id="icon-cancel" viewBox="0 -960 960 960"><path d="m336-280 144-144 144 144 56-56-144-144 144-144-56-56-144 144-144-144-56 56 144 144-144 144 56 56ZM480-80q-83 0-156-31.5T197-197q-54-54-85.5-127T80-480q0-83 31.5-156T197-763q54-54 127-85.5T480-880q83 0 156 31.5T763-763q54 54 85.5 127T880-480q0 83-31.5 156T763-197q-54 54-127 85.5T480-80Zm0-80q134 0 227-93t93-227q0-134-93-227t-227-93q-134 0-227 93t-93 227q0 134 93 227t227 93Zm0-320Z"/></symbol>
  <symbol id="icon-check_circle" viewBox="0 -960 960 960"><path d="m424-296 282-282-56-56-226 226-114-114-56 56 170 170Zm56 216q-83 0-156-31.5T197-197q-54-54-85.5-127T80-480q0-83 31.5-156T197-763q54-54 127-85.5T480-880q83 0 156 31.5T763-763q54 54 85.5 127T880-480q0 83-31.5 156T763-197q-54 54-127 85.5T480-80Zm0-80q134 0 227-93t93-227q0-134-93-227t-227-93q-134 0-227 93t-93 227q0 134 93 227t227 93Zm0-320Z"/></symbol>
  <symbol id="icon-checklist" viewBox="0 -960 960 960"><path d="M222-200 80-342l56-56 85 85 170-170 56 57-225 226Zm0-320L80-662l56-56 85 85 170-170 56 57-225 226Zm298 240v-80h360v80H520Zm0-320v-80h360v80H520Z"/></symbol>
  <symbol id="icon-close" viewBox="0 -960 960 960"><path d="m256-200-56-56 224-224-224-224 56-56 224 224 224-224 56 56-224 224 224 224-56 56-224-224-224 224Z"/></symbol>
  <symbol id="icon-delete" viewBox="0 -960 960 960"><path d="M280-120q-33 0-56.5-23.5T200-200v-520h-40v-80h200v-40h240v40h200v80h-40v520q0 33-23.5 56.5T680-120H280Zm400-600H280v520h400v-520ZM360-280h80v-360h-80v360Zm160 0h80v-360h-80v360ZM280-720v520-520Z"/></symbol>
  <symbol id="icon-download" viewBox="0 -960 960 960"><path d="M480-320 280-520l56-58 104 104v-326h80v326l104-104 56 58-200 200ZM240-160q-33 0-56.5-23.5T160-240v-120h80v120h480v-120h80v120q0 33-23.5 56.5T720-160H240Z"/></symbol>
  <symbol id="icon-draw" viewBox="0 -960 960 960"><path d="M160-120v-170l527-526q12-12 27-18t30-6q16 0 30.5 6t25.5 18l56 56q12 11 18 25.5t6 30.5q0 15-6 30t-18 27L330-120H160Zm80-80h56l393-392-28-29-29-28-392 393v56Zm560-503-57-57 57 57Zm-139 82-29-28 57 57-28-29ZM560-120q74 0 137-37t63-103q0-36-19-62t-51-45l-59 59q23 10 36 22t13 26q0 23-36.5 41.5T560-200q-17 0-28.5 11.5T520-160q0 17 11.5 28.5T560-120ZM183-426l60-60q-20-8-31.5-16.5T200-520q0-12 18-24t76-37q88-38 117-69t29-70q0-55-44-87.5T280-840q-45 0-80.5 16T145-785q-11 13-9 29t15 26q13 11 29 9t27-13q14-14 31-20t42-6q41 0 60.5 12t19.5 28q0 14-17.5 25.5T262-654q-80 35-111 63.5T120-520q0 32 17 54.5t46 39.5Z"/></symbol>
  <symbol id="icon-edit" viewBox="0 -960 960 960"><path d="M200-200h57l391-391-57-57-391 391v57Zm-80 80v-170l528-527q12-11 26.5-17t30.5-6q16 0 31 6t26 18l55 56q12 11 17.5 26t5.5 30q0 16-5.5 30.5T817-647L290-120H120Zm640-584-56-56 56 56Zm-141 85-28-29 57 57-29-28Z"/></symbol>
  <symbol id="icon-fact_check" viewBox="0 -960 960 960"><path d="M160-120q-33 0-56.5-23.5T80-200v-560q0-33 23.5-56.5T160-840h640q33 0 56.5 23.5T880-760v560q0 33-23.5 56.5T800-120H160Zm0-80h640v-560H160v560Zm40-80h200v-80H200v80Zm382-80 198-198-57-57-141 142-57-57-56 57 113 113Zm-382-80h200v-80H200v80Zm0-160h200v-80H200v80Zm-40 400v-560 560Z"/></symbol>
  <symbol id="icon-flag" viewBox="0 -960 960 960"><path d="M200-120v-680h360l16 80h224v400H520l-16-80H280v280h-80Zm300-440Zm86 160h134v-240H510l-16-80H280v240h290l16 80Z"/></symbol>
  <symbol id="icon-gavel" viewBox="0 -960 960 960"><path d="M160-120v-80h480v80H160Zm226-194L160-540l84-86 228 226-86 86Zm254-254L414-796l86-84 226 226-86 86Zm184 408L302-682l56-56 522 522-56 56Z"/></symbol>
  <symbol id="icon-groups" viewBox="0 -960 960 960"><path d="M0-240v-63q0-43 44-70t116-27q13 0 25 .5t23 2.5q-14 21-21 44t-7 48v65H0Zm240 0v-65q0-32 17.5-58.5T307-410q32-20 76.5-30t96.5-10q53 0 97.5 10t76.5 30q32 20 49 46.5t17 58.5v65H240Zm540 0v-65q0-26-6.5-49T754-397q11-2 22.5-2.5t23.5-.5q72 0 116 26.5t44 70.5v63H780Zm-455-80h311q-10-20-55.5-35T480-370q-55 0-100.5 15T325-320ZM160-440q-33 0-56.5-23.5T80-520q0-34 23.5-57t56.5-23q34 0 57 23t23 57q0 33-23 56.5T160-440Zm640 0q-33 0-56.5-23.5T720-520q0-34 23.5-57t56.5-23q34 0 57 23t23 57q0 33-23 56.5T800-440Zm-320-40q-50 0-85-35t-35-85q0-51 35-85.5t85-34.5q51 0 85.5 34.5T600-600q0 50-34.5 85T480-480Zm0-80q17 0 28.5-11.5T520-600q0-17-11.5-28.5T480-640q-17 0-28.5 11.5T440-600q0 17 11.5 28.5T480-560Zm1 240Zm-1-280Z"/></symbol>
  <symbol id="icon-history" viewBox="0 -960 960 960"><path d="M480-120q-138 0-240.5-91.5T122-440h82q14 104 92.5 172T480-200q117 0 198.5-81.5T760-480q0-117-81.5-198.5T480-760q-69 0-129 32t-101 88h110v80H120v-240h80v94q51-64 124.5-99T480-840q75 0 140.5 28.5t114 77q48.5 48.5 77 114T840-480q0 75-28.5 140.5t-77 114q-48.5 48.5-114 77T480-120Zm112-192L440-464v-216h80v184l128 128-56 56Z"/></symbol>
  <symbol id="icon-image" viewBox="0 -960 960 960"><path d="M200-120q-33 0-56.5-23.5T120-200v-560q0-33 23.5-56.5T200-840h560q33 0 56.5 23.5T840-760v560q0 33-23.5 56.5T760-120H200Zm0-80h560v-560H200v560Zm40-80h480L570-480 450-320l-90-120-120 160Zm-40 80v-560 560Z"/></symbol>
  <symbol id="icon-library_books" viewBox="0 -960 960 960"><path d="M400-400h160v-80H400v80Zm0-120h320v-80H400v80Zm0-120h320v-80H400v80Zm-80 400q-33 0-56.5-23.5T240-320v-480q0-33 23.5-56.5T320-880h480q33 0 56.5 23.5T880-800v480q0 33-23.5 56.5T800-240H320Zm0-80h480v-480H320v480ZM160-80q-33 0-56.5-23.5T80-160v-560h80v560h560v80H160Zm160-720v480-480Z"/></symbol>
  <symbol id="icon-login" viewBox="0 -960 960 960"><path d="M480-120v-80h280v-560H480v-80h280q33 0 56.5 23.5T840-760v560q0 33-23.5 56.5T760-120H480Zm-80-160-55-58 102-102H120v-80h327L345-622l55-58 200 200-200 200Z"/></symbol>
  <symbol id="icon-menu" viewBox="0 -960 960 960"><path d="M120-240v-80h720v80H120Zm0-200v-80h720v80H120Zm0-200v-80h720v80H120Z"/></symbol>
  <symbol id="icon-menu_book" viewBox="0 -960 960 960"><path d="M560-564v-68q33-14 67.5-21t72.5-7q26 0 51 4t49 10v64q-24-9-48.5-13.5T700-600q-38 0-73 9.5T560-564Zm0 220v-68q33-14 67.5-21t72.5-7q26 0 51 4t49 10v64q-24-9-48.5-13.5T700-380q-38 0-73 9t-67 27Zm0-110v-68q33-14 67.5-21t72.5-7q26 0 51 4t49 10v64q-24-9-48.5-13.5T700-490q-38 0-73 9.5T560-454ZM260-320q47 0 91.5 10.5T440-278v-394q-41-24-87-36t-93-12q-36 0-71.5 7T120-692v396q35-12 69.5-18t70.5-6Zm260 42q44-21 88.5-31.5T700-320q36 0 70.5 6t69.5 18v-396q-33-14-68.5-21t-71.5-7q-47 0-93 12t-87 36v394Zm-40 118q-48-38-104-59t-116-21q-42 0-82.5 11T100-198q-21 11-40.5-1T40-234v-482q0-11 5.5-21T62-752q46-24 96-36t102-12q58 0 113.5 15T480-740q51-30 106.5-45T700-800q52 0 102 12t96 36q11 5 16.5 15t5.5 21v482q0 23-19.5 35t-40.5 1q-37-20-77.5-31T700-240q-60 0-116 21t-104 59ZM280-494Z"/></symbol>
  <symbol id="icon-model_training" viewBox="0 -960 960 960"><path d="M206-206q-41-48-63.5-107.5T120-440q0-150 105-255t255-105h8l-64-64 56-56 160 160-160 160-57-57 63-63h-6q-116 0-198 82t-82 198q0 51 16.5 96t46.5 81l-57 57Zm234-14q0-23-15.5-45.5t-34.5-47q-19-24.5-34.5-51T340-420q0-58 41-99t99-41q58 0 99 41t41 99q0 30-15.5 56.5t-34.5 51q-19 24.5-34.5 47T520-220h-80Zm0 100v-60h80v60h-80Zm314-86-57-57q30-36 46.5-81t16.5-96q0-66-27.5-122.5T657-657l57-57q58 50 92 120.5T840-440q0 67-22.5 126.5T754-206Z"/></symbol>
  <symbol id="icon-notifications" viewBox="0 -960 960 960"><path d="M160-200v-80h80v-280q0-83 50-147.5T420-792v-28q0-25 17.5-42.5T480-880q25 0 42.5 17.5T540-820v28q80 20 130 84.5T720-560v280h80v80H160Zm320-300Zm0 420q-33 0-56.5-23.5T400-160h160q0 33-23.5 56.5T480-80ZM320-280h320v-280q0-66-47-113t-113-47q-66 0-113 47t-47 113v280Z"/></symbol>
  <symbol id="icon-paid" viewBox="0 -960 960 960"><path d="M444-200h70v-50q50-9 86-39t36-89q0-42-24-77t-96-61q-60-20-83-35t-23-41q0-26 18.5-41t53.5-15q32 0 50 15.5t26 38.5l64-26q-11-35-40.5-61T516-710v-50h-70v50q-50 11-78 44t-28 74q0 47 27.5 76t86.5 50q63 23 87.5 41t24.5 47q0 33-23.5 48.5T486-314q-33 0-58.5-20.5T390-396l-66 26q14 48 43.5 77.5T444-252v52Zm36 120q-83 0-156-31.5T197-197q-54-54-85.5-127T80-480q0-83 31.5-156T197-763q54-54 127-85.5T480-880q83 0 156 31.5T763-763q54 54 85.5 127T880-480q0 83-31.5 156T763-197q-54 54-127 85.5T480-80Zm0-80q134 0 227-93t93-227q0-134-93-227t-227-93q-134 0-227 93t-93 227q0 134 93 227t227 93Zm0-320Z"/></symbol>
  <symbol id="icon-person" viewBox="0 -960 960 960"><path d="M480-480q-66 0-113-47t-47-113q0-66 47-113t113-47q66 0 113 47t47 113q0 66-47 113t-113 47ZM160-160v-112q0-34 17.5-62.5T224-378q62-31 126-46.5T480-440q66 0 130 15.5T736-378q29 15 46.5 43.5T800-272v112H160Zm80-80h480v-32q0-11-5.5-20T700-306q-54-27-109-40.5T480-360q-56 0-111 13.5T260-306q-9 5-14.5 14t-5.5 20v32Zm240-320q33 0 56.5-23.5T560-640q0-33-23.5-56.5T480-720q-33 0-56.5 23.5T400-640q0 33 23.5 56.5T480-560Zm0-80Zm0 400Z"/></symbol>
  <symbol id="icon-person_add" viewBox="0 -960 960 960"><path d="M720-400v-120H600v-80h120v-120h80v120h120v80H800v120h-80Zm-360-80q-66 0-113-47t-47-113q0-66 47-113t113-47q66 0 113 47t47 113q0 66-47 113t-113 47ZM40-160v-112q0-34 17.5-62.5T104-378q62-31 126-46.5T360-440q66 0 130 15.5T616-378q29 15 46.5 43.5T680-272v112H40Zm80-80h480v-32q0-11-5.5-20T580-306q-54-27-109-40.5T360-360q-56 0-111 13.5T140-306q-9 5-14.5 14t-5.5 20v32Zm240-320q33 0 56.5-23.5T440-640q0-33-23.5-56.5T360-720q-33 0-56.5 23.5T280-640q0 33 23.5 56.5T360-560Zm0-80Zm0 400Z"/></symbol>
  <symbol id="icon-receipt_long" viewBox="0 -960 960 960"><path d="M240-80q-50 0-85-35t-35-85v-120h120v-560l60 60 60-60 60 60 60-60 60 60 60-60 60 60 60-60 60 60 60-60v680q0 50-35 85t-85 35H240Zm480-80q17 0 28.5-11.5T760-200v-560H320v440h360v120q0 17 11.5 28.5T720-160ZM360-600v-80h240v80H360Zm0 120v-80h240v80H360Zm320-120q-17 0-28.5-11.5T640-640q0-17 11.5-28.5T680-680q17 0 28.5 11.5T720-640q0 17-11.5 28.5T680-600Zm0 120q-17 0-28.5-11.5T640-520q0-17 11.5-28.5T680-560q17 0 28.5 11.5T720-520q0 17-11.5 28.5T680-480ZM240-160h360v-80H200v40q0 17 11.5 28.5T240-160Zm-40 0v-80 80Z"/></symbol>
  <symbol id="icon-refresh" viewBox="0 -960 960 960"><path d="M480-160q-134 0-227-93t-93-227q0-134 93-227t227-93q69 0 132 28.5T720-690v-110h80v280H520v-80h168q-32-56-87.5-88T480-720q-100 0-170 70t-70 170q0 100 70 170t170 70q77 0 139-44t87-116h84q-28 106-114 173t-196 67Z"/></symbol>
  <symbol id="icon-restart_alt" viewBox="0 -960 960 960"><path d="M440-122q-121-15-200.5-105.5T160-440q0-66 26-126.5T260-672l57 57q-38 34-57.5 79T240-440q0 88 56 155.5T440-202v80Zm80 0v-80q87-16 143.5-83T720-440q0-100-70-170t-170-70h-3l44 44-56 56-140-140 140-140 56 56-44 44h3q134 0 227 93t93 227q0 121-79.5 211.5T520-122Z"/></symbol>
  <symbol id="icon-save" viewBox="0 -960 960 960"><path d="M840-680v480q0 33-23.5 56.5T760-120H200q-33 0-56.5-23.5T120-200v-560q0-33 23.5-56.5T200-840h480l160 160Zm-80 34L646-760H200v560h560v-446ZM480-240q50 0 85-35t35-85q0-50-35-85t-85-35q-50 0-85 35t-35 85q0 50 35 85t85 35ZM240-560h360v-160H240v160Zm-40-86v446-560 114Z"/></symbol>
  <symbol id="icon-search" viewBox="0 -960 960 960"><path d="M784-120 532-372q-30 24-69 38t-83 14q-109 0-184.5-75.5T120-580q0-109 75.5-184.5T380-840q109 0 184.5 75.5T640-580q0 44-14 83t-38 69l252 252-56 56ZM380-400q75 0 127.5-52.5T560-580q0-75-52.5-127.5T380-760q-75 0-127.5 52.5T200-580q0 75 52.5 127.5T380-400Z"/></symbol>
  <symbol id="icon-send" viewBox="0 -960 960 960"><path d="M120-160v-640l760 320-760 320Zm80-120 474-200-474-200v140l240 60-240 60v140Zm0 0v-400 400Z"/></symbol>
  <symbol id="icon-settings" viewBox="0 -960 960 960"><path d="m370-80-16-128q-13-5-24.5-12T307-235l-119 50L78-375l103-78q-1-7-1-13.5v-27q0-6.5 1-13.5L78-585l110-190 119 50q11-8 23-15t24-12l16-128h220l16 128q13 5 24.5 12t22.5 15l119-50 110 190-103 78q1 7 1 13.5v27q0 6.5-2 13.5l103 78-110 190-118-50q-11 8-23 15t-24 12L590-80H370Zm70-80h79l14-106q31-8 57.5-23.5T639-327l99 41 39-68-86-65q5-14 7-29.5t2-31.5q0-16-2-31.5t-7-29.5l86-65-39-68-99 42q-22-23-48.5-38.5T533-694l-13-106h-79l-14 106q-31 8-57.5 23.5T321-633l-99-41-39 68 86 64q-5 15-7 30t-2 32q0 16 2 31t7 30l-86 65 39 68 99-42q22 23 48.5 38.5T427-266l13 106Zm42-180q58 0 99-41t41-99q0-58-41-99t-99-41q-59 0-99.5 41T342-480q0 58 40.5 99t99.5 41Zm-2-140Z"/></symbol>
  <symbol id="icon-swap_horiz" viewBox="0 -960 960 960"><path d="M280-160 80-360l200-200 56 57-103 103h287v80H233l103 103-56 57Zm400-240-56-57 103-103H440v-80h287L624-743l56-57 200 200-200 200Z"/></symbol>
  <symbol id="icon-sync_alt" viewBox="0 -960 960 960"><path d="M280-120 80-320l200-200 57 56-104 104h607v80H233l104 104-57 56Zm400-320-57-56 104-104H120v-80h607L623-784l57-56 200 200-200 200Z"/></symbol>
  <symbol id="icon-tune" viewBox="0 -960 960 960"><path d="M440-120v-240h80v80h320v80H520v80h-80Zm-320-80v-80h240v80H120Zm160-160v-80H120v-80h160v-80h80v240h-80Zm160-80v-80h400v80H440Zm160-160v-240h80v80h160v80H680v80h-80Zm-480-80v-80h400v80H120Z"/></symbol>
  <symbol id="icon-undo" viewBox="0 -960 960 960"><path d="M280-200v-80h284q63 0 109.5-40T720-420q0-60-46.5-100T564-560H312l104 104-56 56-200-200 200-200 56 56-104 104h252q97 0 166.5 63T800-420q0 94-69.5 157T564-200H280Z"/></symbol>
  <symbol id="icon-upload" viewBox="0 -960 960 960"><path d="M440-320v-326L336-542l-56-58 200-200 200 200-56 58-104-104v326h-80ZM240-160q-33 0-56.5-23.5T160-240v-120h80v120h480v-120h80v120q0 33-23.5 56.5T720-160H240Z"/></symbol>
  <symbol id="icon-upload_file" viewBox="0 -960 960 960"><path d="M440-200h80v-167l64 64 56-57-160-160-160 160 57 56 63-63v167ZM240-80q-33 0-56.5-23.5T160-160v-640q0-33 23.5-56.5T240-880h320l240 240v480q0 33-23.5 56.5T720-80H240Zm280-520v-200H240v640h480v-440H520ZM240-800v200-200 640-640Z"/></symbol>
  <symbol id="icon-verified" viewBox="0 -960 960 960"><path d="m344-60-76-128-144-32 14-148-98-112 98-112-14-148 144-32 76-128 136 58 136-58 76 128 144 32-14 148 98 112-98 112 14 148-144 32-76 128-136-58-136 58Zm34-102 102-44 104 44 56-96 110-26-10-112 74-84-74-86 10-112-110-24-58-96-102 44-104-44-56 96-110 24 10 112-74 86 74 84-10 114 110 24 58 96Zm102-318Zm-42 142 226-226-56-58-170 170-86-84-56 56 142 142Z"/></symbol>
  <symbol id="icon-visibility" viewBox="0 -960 960 960"><path d="M480-320q75 0 127.5-52.5T660-500q0-75-52.5-127.5T480-680q-75 0-127.5 52.5T300-500q0 75 52.5 127.5T480-320Zm0-72q-45 0-76.5-31.5T372-500q0-45 31.5-76.5T480-608q45 0 76.5 31.5T588-500q0 45-31.5 76.5T480-392Zm0 192q-146 0-266-81.5T40-500q54-137 174-218.5T480-800q146 0 266 81.5T920-500q-54 137-174 218.5T480-200Zm0-300Zm0 220q113 0 207.5-59.5T832-500q-50-101-144.5-160.5T480-720q-113 0-207.5 59.5T128-500q50 101 144.5 160.5T480-280Z"/></symbol>
  <symbol id="icon-vpn_key" viewBox="0 -960 960 960"><path d="M280-240q-100 0-170-70T40-480q0-100 70-170t170-70q66 0 121 33t87 87h432v240h-80v120H600v-120H488q-32 54-87 87t-121 33Zm0-80q66 0 106-40.5t48-79.5h246v120h80v-120h80v-80H434q-8-39-48-79.5T280-640q-66 0-113 47t-47 113q0 66 47 113t113 47Zm0-80q33 0 56.5-23.5T360-480q0-33-23.5-56.5T280-560q-33 0-56.5 23.5T200-480q0 33 23.5 56.5T280-400Zm0-80Z"/></symbol>
  <symbol id="icon-zoom_in" viewBox="0 -960 960 960"><path d="M784-120 532-372q-30 24-69 38t-83 14q-109 0-184.5-75.5T120-580q0-109 75.5-184.5T380-840q109 0 184.5 75.5T640-580q0 44-14 83t-38 69l252 252-56 56ZM380-400q75 0 127.5-52.5T560-580q0-75-52.5-127.5T380-760q-75 0-127.5 52.5T200-580q0 75 52.5 127.5T380-400Zm-40-60v-80h-80v-80h80v-80h80v80h80v80h-80v80h-80Z"/></symbol>
  <symbol id="icon-zoom_out" viewBox="0 -960 960 960"><path d="M784-120 532-372q-30 24-69 38t-83 14q-109 0-184.5-75.5T120-580q0-109 75.5-184.5T380-840q109 0 184.5 75.5T640-580q0 44-14 83t-38 69l252 252-56 56ZM380-400q75 0 127.5-52.5T560-580q0-75-52.5-127.5T380-760q-75 0-127.5 52.5T200-580q0 75 52.5 127.5T380-400ZM280-540v-80h200v80H280Z"/></symbol>
</svg>
